<svg width="24" height="28" viewBox="0 0 24 28" fill="none" xmlns="http://www.w3.org/2000/svg">
<path d="M21.7199 12.7559C21.3257 12.2892 20.8458 11.8848 20.4001 11.4803C19.2518 10.547 17.9492 9.87806 16.8522 8.89803C14.2984 6.62686 13.7328 2.87786 15.3611 0C13.7328 0.357788 12.3102 1.1667 11.0933 2.05339C6.65408 5.28904 4.90583 10.9981 6.99687 15.8982C7.06543 16.0538 7.13399 16.2094 7.13399 16.4116C7.13399 16.7538 6.8769 17.0649 6.5341 17.1894C6.13989 17.3449 5.72853 17.2516 5.40288 17.0027C5.3056 16.9287 5.22425 16.8391 5.16292 16.7383C3.22613 14.5137 2.91762 11.3248 4.22024 8.77358C1.35791 10.8892 -0.201809 14.4671 0.0210077 17.8427C0.123846 18.6205 0.226684 19.3983 0.518059 20.1761C0.758016 21.1095 1.22079 22.0429 1.73498 22.8673C3.58607 25.5585 6.7912 27.4874 10.2363 27.8764C13.9042 28.2964 17.8292 27.6897 20.6401 25.3874C23.7767 22.8051 24.8736 18.6672 23.2625 15.1204L23.0396 14.716C22.6797 14.0004 21.7199 12.7559 21.7199 12.7559ZM16.3037 22.5562C15.8238 22.9295 15.0354 23.334 14.4184 23.4896C12.4987 24.1118 10.5791 23.2407 9.44785 22.214C11.4875 21.7784 12.7044 20.4095 13.0643 19.025C13.3557 17.7805 12.8072 16.7538 12.5844 15.556C12.3787 14.4049 12.413 13.4248 12.8758 12.3515C13.2015 12.9426 13.5442 13.5337 13.9556 14.0004C15.2754 15.556 17.3493 16.2405 17.7949 18.3561C17.8635 18.5739 17.8977 18.7916 17.8977 19.025C17.9492 20.3006 17.3321 21.7006 16.3037 22.5562Z" fill="black"/>
</svg>
