<svg width="31" height="31" viewBox="0 0 31 31" fill="none" xmlns="http://www.w3.org/2000/svg">
<path d="M28.7655 0.283991C27.6907 0.0987583 26.6023 0.00376348 25.5116 6.50212e-06C21.7903 -0.00303435 18.1467 1.06057 15.015 3.06405C11.8752 1.08688 8.23219 0.0493762 4.51843 0.0747392C3.42772 0.0784962 2.33925 0.173491 1.26449 0.358724C0.912414 0.419225 0.59358 0.603038 0.365403 0.87706C0.137226 1.15108 0.014702 1.4973 0.0198959 1.85338V19.7893C0.0166844 20.0089 0.0620714 20.2265 0.152827 20.4266C0.243584 20.6268 0.377478 20.8045 0.544984 20.9472C0.71249 21.0899 0.909491 21.1941 1.12197 21.2523C1.33445 21.3105 1.55718 21.3213 1.77432 21.2839C3.92315 20.9131 6.12471 20.9746 8.24931 21.4649C10.3739 21.9552 12.3786 22.8643 14.1453 24.1387L14.3252 24.2433H14.4902C14.6563 24.3132 14.8347 24.3492 15.015 24.3492C15.1953 24.3492 15.3737 24.3132 15.5398 24.2433H15.7048L15.8847 24.1387C17.6391 22.8358 19.638 21.8972 21.763 21.3786C23.888 20.86 26.0959 20.7719 28.2557 21.1195C28.4728 21.1569 28.6956 21.1461 28.908 21.0879C29.1205 21.0297 29.3175 20.9255 29.485 20.7828C29.6525 20.6401 29.7864 20.4624 29.8772 20.2622C29.9679 20.0621 30.0133 19.8445 30.0101 19.6248V1.68897C29.9945 1.34842 29.8626 1.02341 29.6362 0.767868C29.4098 0.512322 29.1026 0.34159 28.7655 0.283991ZM13.5155 20.148C10.7406 18.6949 7.65296 17.9357 4.51843 17.9359H3.01892V2.98932C3.51837 2.96162 4.01898 2.96162 4.51843 2.98932C7.71746 2.98579 10.8467 3.92152 13.5155 5.6797V20.148ZM27.0111 17.9957H25.5116C22.377 17.9955 19.2894 18.7547 16.5145 20.2078V5.6797C19.1833 3.92152 22.3125 2.98579 25.5116 2.98932C26.011 2.96162 26.5116 2.96162 27.0111 2.98932V17.9957ZM28.7655 24.1985C27.6907 24.0133 26.6023 23.9183 25.5116 23.9145C21.7903 23.9115 18.1467 24.9751 15.015 26.9785C11.8833 24.9751 8.23966 23.9115 4.51843 23.9145C3.42772 23.9183 2.33925 24.0133 1.26449 24.1985C1.06929 24.2294 0.882148 24.2984 0.713813 24.4016C0.545477 24.5048 0.399274 24.6402 0.28361 24.8C0.167946 24.9597 0.0851027 25.1406 0.039845 25.3324C-0.00541273 25.5242 -0.0121924 25.723 0.0198959 25.9173C0.096099 26.3055 0.323532 26.6477 0.652375 26.869C0.981218 27.0903 1.38466 27.1727 1.77432 27.0981C3.92315 26.7273 6.12471 26.7888 8.24931 27.2791C10.3739 27.7694 12.3786 28.6785 14.1453 29.9529C14.3992 30.1331 14.7032 30.23 15.015 30.23C15.3268 30.23 15.6308 30.1331 15.8847 29.9529C17.6514 28.6785 19.6561 27.7694 21.7807 27.2791C23.9053 26.7888 26.1068 26.7273 28.2557 27.0981C28.6453 27.1727 29.0488 27.0903 29.3776 26.869C29.7065 26.6477 29.9339 26.3055 30.0101 25.9173C30.0422 25.723 30.0354 25.5242 29.9902 25.3324C29.9449 25.1406 29.8621 24.9597 29.7464 24.8C29.6307 24.6402 29.4845 24.5048 29.3162 24.4016C29.1479 24.2984 28.9607 24.2294 28.7655 24.1985Z" fill="black"/>
</svg>
