<svg width="36" height="31" viewBox="0 0 36 31" fill="none" xmlns="http://www.w3.org/2000/svg">
<path d="M17.6862 13.4286C14.6889 13.4286 12.2591 10.6463 12.2591 7.21429C12.2591 3.78223 14.6889 1 17.6862 1C20.6835 1 23.1133 3.78223 23.1133 7.21429C23.1133 10.6463 20.6835 13.4286 17.6862 13.4286Z" stroke="black" stroke-width="2" stroke-linecap="round"/>
<path d="M11.7747 7.21388C11.5389 6.73892 11.2234 6.32207 10.8463 5.98732C10.4691 5.65257 10.0379 5.40653 9.57746 5.26338C9.11698 5.12023 8.63632 5.08279 8.16315 5.15321C7.68998 5.22363 7.23365 5.40053 6.82043 5.67372C6.40721 5.9469 6.04525 6.31098 5.75542 6.74499C5.46558 7.17901 5.25358 7.67438 5.13162 8.20259C5.00966 8.7308 4.98015 9.28142 5.04478 9.82274C5.10942 10.3641 5.26694 10.8854 5.50825 11.3567C5.99145 12.3005 6.78104 12.9871 7.70471 13.2668C8.62839 13.5464 9.61116 13.3963 10.4386 12.8493C11.266 12.3023 11.8708 11.4028 12.1212 10.347C12.3715 9.2912 12.247 8.16491 11.7747 7.21388ZM29.8651 7.21388C29.6292 6.73892 29.3137 6.32207 28.9366 5.98732C28.5595 5.65257 28.1283 5.40653 27.6678 5.26338C27.2073 5.12023 26.7266 5.08279 26.2535 5.15321C25.7803 5.22363 25.324 5.40053 24.9107 5.67372C24.4975 5.9469 24.1356 6.31098 23.8457 6.74499C23.5559 7.17901 23.3439 7.67438 23.2219 8.20259C23.1 8.7308 23.0705 9.28142 23.1351 9.82274C23.1997 10.3641 23.3573 10.8854 23.5986 11.3567C24.0818 12.3005 24.8714 12.9871 25.795 13.2668C26.7187 13.5464 27.7015 13.3963 28.5289 12.8493C29.3563 12.3023 29.9612 11.4028 30.2115 10.347C30.4618 9.2912 30.3373 8.16491 29.8651 7.21388Z" stroke="black" stroke-width="2"/>
<path d="M8.85464 27.9284L10.6275 28.3365L10.338 29.9999H8.85464V27.9284ZM12.6572 21.1155L13.7499 19.4646L15.8429 21.2854L13.6106 22.8741L12.6572 21.1155ZM3.45286 25.857H8.85283L8.85464 29.9999H3.45286V25.857ZM3.61568 26.35C3.63493 26.281 3.63805 26.2074 3.62472 26.1366C3.61506 26.0629 3.58819 25.9935 3.54693 25.9357C3.48905 25.8529 3.4402 25.857 3.45286 25.857V29.9999C1.37971 29.9999 -0.659065 27.7627 0.20565 24.9663L3.61568 26.35ZM8.64117 21.7141C5.67074 21.7141 4.29407 24.1605 3.61568 26.35L0.20565 24.9663C1.04685 22.2506 3.30814 17.5713 8.64117 17.5713V21.7141ZM11.5609 22.7644C10.8663 22.1595 9.94006 21.7141 8.64117 21.7141V17.5713C10.7433 17.5713 12.4347 18.3211 13.7499 19.4646L11.5609 22.7644ZM13.6106 22.8741C11.731 24.2123 10.9441 26.5447 10.6293 28.3365L7.08359 27.5204C7.47615 25.277 8.57424 21.5816 11.7002 19.3548L13.6106 22.8741ZM22.7154 21.1134L21.7621 22.8741L19.5297 21.2854L21.6228 19.4646L22.7154 21.1134ZM26.518 27.9284V29.9999H25.0364L24.7434 28.3365L26.518 27.9284ZM26.7315 21.7141C25.4326 21.7141 24.5064 22.1595 23.8117 22.7644L21.6228 19.4646C22.938 18.3211 24.6294 17.5713 26.7315 17.5713V21.7141ZM31.757 26.35C31.0786 24.1605 29.7019 21.7141 26.7315 21.7141V17.5713C32.0645 17.5713 34.3258 22.2506 35.167 24.9663L31.757 26.35ZM31.9198 25.857C31.9306 25.857 31.8836 25.8529 31.8239 25.9357C31.7833 25.9937 31.7571 26.0631 31.7479 26.1366C31.7346 26.2074 31.7377 26.281 31.757 26.35L35.167 24.9663C36.0299 27.7627 33.9911 29.9999 31.918 29.9999L31.9198 25.857ZM26.518 25.857H31.9198L31.918 29.9999H26.518V25.857ZM24.7452 28.3365C24.4286 26.5447 23.6417 24.2123 21.7603 22.8741L23.6742 19.3527C26.8002 21.5795 27.8983 25.277 28.2927 27.5183L24.7452 28.3365Z" fill="black"/>
<path d="M17.6861 19.6431C11.2243 19.6431 9.37904 24.9273 8.85261 27.9474C8.65543 29.0681 9.44959 30.0002 10.45 30.0002H24.9222C25.9208 30.0002 26.7168 29.0681 26.5196 27.9474C25.9932 24.9252 24.148 19.6431 17.6861 19.6431Z" stroke="black" stroke-width="2" stroke-linecap="round"/>
</svg>
