<svg width="30" height="30" viewBox="0 0 30 30" fill="none" xmlns="http://www.w3.org/2000/svg">
<path opacity="0.16" d="M22.5195 28.5003H7.51953C6.72388 28.5003 5.96082 28.1842 5.39821 27.6216C4.8356 27.059 4.51953 26.2959 4.51953 25.5003V12.0001L15.0195 1.5L25.5195 12.0001V25.5003C25.5195 26.2959 25.2035 27.059 24.6409 27.6216C24.0782 28.1842 23.3152 28.5003 22.5195 28.5003Z" fill="black"/>
<path d="M27.0184 11.9998C27.0184 11.602 26.8604 11.2204 26.5791 10.9391C26.2978 10.6578 25.9163 10.4998 25.5184 10.4998C25.1206 10.4998 24.7391 10.6578 24.4578 10.9391C24.1765 11.2204 24.0184 11.602 24.0184 11.9998H27.0184ZM6.01843 11.9998C6.01843 11.602 5.8604 11.2204 5.57909 10.9391C5.29779 10.6578 4.91626 10.4998 4.51843 10.4998C4.12061 10.4998 3.73908 10.6578 3.45777 10.9391C3.17647 11.2204 3.01843 11.602 3.01843 11.9998H6.01843ZM27.4579 16.0604C27.7408 16.3336 28.1197 16.4848 28.513 16.4814C28.9063 16.4779 29.2825 16.3202 29.5607 16.0421C29.8388 15.764 29.9965 15.3877 29.9999 14.9944C30.0034 14.6011 29.8522 14.2222 29.5789 13.9393L27.4579 16.0604ZM15.0184 1.4997L16.0789 0.439184C15.7976 0.157975 15.4162 0 15.0184 0C14.6207 0 14.2392 0.157975 13.9579 0.439184L15.0184 1.4997ZM0.457932 13.9393C0.314667 14.0777 0.200394 14.2432 0.12178 14.4262C0.0431668 14.6092 0.00178736 14.8061 5.66351e-05 15.0052C-0.00167409 15.2044 0.0362785 15.4019 0.1117 15.5863C0.187121 15.7706 0.298501 15.9381 0.43934 16.0789C0.580179 16.2198 0.747657 16.3312 0.932001 16.4066C1.11635 16.482 1.31387 16.52 1.51303 16.5182C1.7122 16.5165 1.90903 16.4751 2.09204 16.3965C2.27505 16.3179 2.44056 16.2036 2.57893 16.0604L0.457932 13.9393ZM7.51843 30H22.5184V27H7.51843V30ZM27.0184 25.5V11.9998H24.0184V25.5H27.0184ZM6.01843 25.5V11.9998H3.01843V25.5H6.01843ZM29.5789 13.9393L16.0789 0.439184L13.9579 2.56021L27.4579 16.0604L29.5789 13.9393ZM13.9579 0.439184L0.457932 13.9393L2.57893 16.0604L16.0789 2.56021L13.9579 0.439184ZM22.5184 30C23.7119 30 24.8565 29.5259 25.7004 28.682C26.5443 27.838 27.0184 26.6934 27.0184 25.5H24.0184C24.0184 25.8978 23.8604 26.2793 23.5791 26.5606C23.2978 26.8419 22.9163 27 22.5184 27V30ZM7.51843 27C7.12061 27 6.73908 26.8419 6.45777 26.5606C6.17647 26.2793 6.01843 25.8978 6.01843 25.5H3.01843C3.01843 26.6934 3.49254 27.838 4.33645 28.682C5.18037 29.5259 6.32496 30 7.51843 30V27Z" fill="black"/>
</svg>
