<svg width="392" height="1088" viewBox="0 0 392 1088" fill="none" xmlns="http://www.w3.org/2000/svg">
<path fill-rule="evenodd" clip-rule="evenodd" d="M16.1095 15.393C16.1097 15.393 16.111 15.3933 17.3727 8.00014C18.6344 0.607025 18.6379 0.607625 18.6425 0.608415L18.6573 0.610943L18.7064 0.619434L18.8829 0.650294C19.035 0.677087 19.2558 0.716391 19.5433 0.76862C20.1182 0.873077 20.9597 1.02925 22.0518 1.24048C24.2359 1.6629 27.4228 2.30563 31.4838 3.19535C39.6046 4.97452 51.2278 7.74291 65.3219 11.7147C93.4913 19.6529 131.628 32.4253 171.437 51.7687C250.793 90.3289 338.286 155.762 364.81 262.496C378.496 317.57 356.994 364.896 320.39 407.72C287.436 446.275 241.326 482.245 195.438 518.042C190.61 521.808 185.784 525.572 180.977 529.337C130.053 569.221 81.0671 609.258 49.6903 653.654C18.6058 697.636 5.17392 745.334 24.464 801.346C38.5863 842.353 68.1697 879.931 105.253 913.363C142.288 946.752 186.388 975.634 228.877 999.333C271.338 1023.02 312.008 1041.42 342.074 1053.91C357.1 1060.15 369.462 1064.91 378.053 1068.1C382.349 1069.7 385.701 1070.9 387.971 1071.7C389.106 1072.1 389.971 1072.4 390.548 1072.6C390.836 1072.7 391.053 1072.78 391.195 1072.82L391.353 1072.88L391.39 1072.89L391.397 1072.89C391.398 1072.89 391.398 1072.89 391.085 1073.82L389 1080C386.602 1087.11 386.599 1087.11 386.595 1087.1L386.582 1087.1L386.351 1087.02C386.192 1086.97 385.959 1086.89 385.653 1086.78C385.32 1086.67 384.901 1086.52 384.398 1086.35C383.98 1086.2 383.504 1086.03 382.973 1085.84C380.632 1085.02 377.205 1083.79 372.83 1082.16C364.083 1078.91 351.543 1074.09 336.32 1067.76C305.888 1055.12 264.669 1036.47 221.57 1012.43C178.497 988.408 133.363 958.901 95.2089 924.504C57.1027 890.149 25.5416 850.541 10.2815 806.231C-10.9522 744.574 4.30492 691.881 37.4408 644.996C70.2843 598.525 121.05 557.219 171.728 517.528C176.508 513.785 181.286 510.056 186.05 506.338C232.224 470.307 277.082 435.302 308.988 397.974C344.004 357.007 362.291 314.557 350.253 266.113C325.328 165.813 242.742 103.094 164.881 65.2603C126.081 46.4069 88.8248 33.9221 61.2533 26.1524C47.4769 22.2701 36.1427 19.5718 28.2736 17.8478C24.3397 16.9859 21.2736 16.3679 19.2034 15.9676C18.1684 15.7674 17.3825 15.6216 16.8617 15.527C16.6013 15.4797 16.4072 15.4451 16.2814 15.423L16.1443 15.399L16.1146 15.3939L16.1095 15.393Z" fill="#F8B577"/>
</svg>
