<svg width="38" height="38" viewBox="0 0 38 38" fill="none" xmlns="http://www.w3.org/2000/svg">
<path d="M18.733 7.81566e-05C8.39547 7.81566e-05 0 8.39539 0 18.7329C0 29.0704 8.39555 37.4659 18.733 37.4659C29.0704 37.4659 37.4659 29.0705 37.4659 18.733C37.4659 8.39555 29.0703 7.81566e-05 18.733 7.81566e-05ZM18.733 1.39898C28.3152 1.39898 36.0694 9.15078 36.0694 18.733C36.0694 21.1345 35.5803 23.4198 34.6996 25.4982L31.3916 22.7857C27.5155 23.8779 22.7715 23.4914 20.5395 18.0299L17.2606 29.9782C16.5702 26.4212 15.4364 23.6282 13.518 20.9766C11.9782 22.0591 10.9905 23.5259 10.4149 24.9587L5.85227 17.2973C4.45773 19.4317 3.21398 21.7165 2.33414 24.3653C1.72914 22.5997 1.39914 20.705 1.39914 18.733C1.39914 16.7007 1.74945 14.7507 2.39031 12.9395C2.60531 13.4558 3.11453 13.8184 3.70867 13.8184C4.49719 13.8184 5.1368 13.1812 5.1368 12.3927C5.1368 11.6041 4.49719 10.9645 3.70867 10.9645C3.52234 10.9645 3.34461 11.002 3.18133 11.0669C5.33266 6.70516 9.2618 3.38188 14.0285 2.04344C13.9843 2.19829 13.9621 2.35858 13.9626 2.51961C13.9626 3.46852 14.73 4.23836 15.679 4.23836C16.6277 4.23836 17.3977 3.46852 17.3977 2.51961C17.3977 2.12977 17.2673 1.77039 17.0485 1.48211C17.6026 1.42875 18.1648 1.39898 18.733 1.39898ZM20.1978 3.55969C20.0782 3.55962 19.9597 3.58312 19.8492 3.62886C19.7387 3.67461 19.6383 3.74168 19.5537 3.82627C19.4691 3.91085 19.402 4.01127 19.3563 4.12179C19.3105 4.23232 19.287 4.35078 19.2871 4.47039C19.2871 4.97375 19.6944 5.38344 20.1977 5.38344C20.7011 5.38344 21.1109 4.97383 21.1109 4.47047C21.1109 3.96703 20.7012 3.55969 20.1978 3.55969ZM14.3749 5.82781C13.9046 5.8325 13.4271 5.89563 12.9516 6.02313C9.90906 6.83828 8.1032 9.96531 8.91844 13.0079C9.73367 16.0505 12.8609 17.8563 15.9034 17.0411C17.5996 16.5866 18.9096 15.4122 19.5971 13.9356C19.0458 14.5304 18.3373 14.957 17.5537 15.1661C15.2487 15.7837 12.8783 14.4169 12.2608 12.1119C11.643 9.80688 13.0123 7.43898 15.3173 6.82125C16.1306 6.60344 16.9506 6.63242 17.7002 6.86289C16.7408 6.19117 15.5817 5.8157 14.3749 5.82781ZM26.5063 5.89109C25.7713 5.89109 25.1759 6.48672 25.1759 7.22172C25.1759 7.95687 25.7713 8.55234 26.5063 8.55234C27.2415 8.55234 27.837 7.9568 27.837 7.22188C27.837 6.48672 27.2413 5.89109 26.5063 5.89109ZM7.05813 8.02984C6.55477 8.02984 6.1475 8.43953 6.1475 8.94297C6.1475 9.44633 6.55469 9.85359 7.05805 9.85359C7.56141 9.85359 7.96867 9.44633 7.96867 8.94297C7.96867 8.43961 7.56148 8.02984 7.05813 8.02984ZM28.5962 11.2184L28.5474 13.5498L26.3427 14.3164L28.5474 15.083L28.5962 17.4145L30.0048 15.5567L32.2363 16.2305L30.9059 14.3165L32.2363 12.4001L30.0049 13.0763L28.5962 11.2184ZM22.9639 12.1241C22.4604 12.1241 22.0531 12.5313 22.0531 13.0347C22.0531 13.538 22.4604 13.9477 22.9638 13.9477C23.4671 13.9477 23.8768 13.538 23.8768 13.0346C23.8768 12.5311 23.4673 12.1241 22.9639 12.1241ZM33.8233 17.9639C33.3198 17.9639 32.9125 18.3736 32.9125 18.877C32.9125 19.3803 33.3198 19.7876 33.8232 19.7876C34.3265 19.7876 34.7362 19.3803 34.7362 18.877C34.7362 18.3736 34.3266 17.9639 33.8233 17.9639ZM23.8769 18.2373C23.3735 18.2373 22.9662 18.647 22.9662 19.1504C22.9662 19.6537 23.3735 20.061 23.8769 20.061C23.9965 20.0611 24.1149 20.0376 24.2254 19.9918C24.3359 19.9461 24.4363 19.879 24.5209 19.7944C24.6055 19.7099 24.6726 19.6095 24.7183 19.4989C24.764 19.3884 24.7876 19.27 24.7875 19.1504C24.7875 18.647 24.3803 18.2373 23.8769 18.2373Z" fill="black"/>
</svg>
