<svg width="30" height="38" viewBox="0 0 30 38" fill="none" xmlns="http://www.w3.org/2000/svg">
<path d="M15 0C13.8146 0 12.8569 1.06133 12.8569 2.375V3.8C7.96805 4.89844 4.28464 9.69297 4.28464 15.4375V17.3227C4.28464 20.6922 3.24659 23.9652 1.35132 26.5926L0.353449 27.9805C-0.034983 28.5148 -0.108651 29.2496 0.159233 29.8656C0.427117 30.4816 0.989673 30.875 1.60581 30.875H28.3942C29.0103 30.875 29.5729 30.4816 29.8408 29.8656C30.1087 29.2496 30.035 28.5148 29.6466 27.9805L28.6487 26.6C26.7534 23.9652 25.7154 20.6922 25.7154 17.3227V15.4375C25.7154 9.69297 22.032 4.89844 17.1431 3.8V2.375C17.1431 1.06133 16.1854 0 15 0ZM15 7.125C19.1455 7.125 22.5007 10.8434 22.5007 15.4375V17.3227C22.5007 20.8777 23.4316 24.3438 25.1595 27.3125H4.8405C6.56836 24.3438 7.49925 20.8777 7.49925 17.3227V15.4375C7.49925 10.8434 10.8545 7.125 15 7.125ZM19.2861 33.25H15H10.7139C10.7139 34.5117 11.1626 35.7215 11.9662 36.6121C12.7699 37.5027 13.8615 38 15 38C16.1385 38 17.2301 37.5027 18.0338 36.6121C18.8374 35.7215 19.2861 34.5117 19.2861 33.25Z" fill="black"/>
</svg>
