<svg width="40" height="40" viewBox="0 0 40 40" fill="none" xmlns="http://www.w3.org/2000/svg">
<path d="M36.7318 21.3198C36.4054 20.9549 36.2254 20.4858 36.2254 20C36.2254 19.5142 36.4054 19.0451 36.7318 18.6802L39.3376 15.8006C39.6247 15.486 39.803 15.0901 39.8469 14.6697C39.8908 14.2494 39.798 13.8262 39.5818 13.4609L35.5104 6.54183C35.2964 6.17692 34.9706 5.88767 34.5795 5.71531C34.1884 5.54296 33.7518 5.49629 33.3321 5.58196L29.5049 6.34186C29.0179 6.4407 28.511 6.36103 28.0797 6.11789C27.6484 5.87474 27.3226 5.48494 27.1638 5.02204L25.922 1.36253C25.7854 0.965347 25.5252 0.620366 25.1782 0.376353C24.8312 0.13234 24.4148 0.00163737 23.9881 0.00271955H15.8451C15.4012 -0.0200414 14.9619 0.100559 14.5943 0.346101C14.2267 0.591643 13.951 0.948629 13.8094 1.36253L12.6693 5.02204C12.5106 5.48494 12.1848 5.87474 11.7535 6.11789C11.3222 6.36103 10.8152 6.4407 10.3282 6.34186L6.39925 5.58196C6.00137 5.52673 5.59575 5.58841 5.23348 5.75922C4.87121 5.93003 4.56851 6.20233 4.36351 6.54183L0.292029 13.4609C0.0704591 13.8221 -0.0291659 14.243 0.00739696 14.6632C0.0439599 15.0834 0.214838 15.4815 0.495603 15.8006L3.08099 18.6802C3.40736 19.0451 3.58735 19.5142 3.58735 20C3.58735 20.4858 3.40736 20.9549 3.08099 21.3198L0.495603 24.1994C0.214838 24.5185 0.0439599 24.9166 0.00739696 25.3368C-0.0291659 25.757 0.0704591 26.1779 0.292029 26.5391L4.36351 33.4582C4.57746 33.8231 4.90322 34.1123 5.29436 34.2847C5.68549 34.457 6.12203 34.5037 6.54176 34.418L10.3689 33.6581C10.8559 33.5593 11.3629 33.639 11.7942 33.8821C12.2255 34.1253 12.5513 34.5151 12.7101 34.978L13.9519 38.6375C14.0935 39.0514 14.3692 39.4084 14.7368 39.6539C15.1044 39.8994 15.5437 40.02 15.9876 39.9973H24.1306C24.5573 39.9984 24.9737 39.8677 25.3207 39.6236C25.6678 39.3796 25.9279 39.0347 26.0645 38.6375L27.3063 34.978C27.4651 34.5151 27.7909 34.1253 28.2222 33.8821C28.6535 33.639 29.1604 33.5593 29.6474 33.6581L33.4746 34.418C33.8943 34.5037 34.3309 34.457 34.722 34.2847C35.1131 34.1123 35.4389 33.8231 35.6529 33.4582L39.7243 26.5391C39.9405 26.1738 40.0333 25.7506 39.9894 25.3303C39.9455 24.9099 39.7672 24.514 39.4801 24.1994L36.7318 21.3198ZM33.6985 23.9995L35.3271 25.7992L32.7214 30.2386L30.3192 29.7587C28.853 29.4643 27.3278 29.7089 26.0332 30.4462C24.7385 31.1834 23.7644 32.362 23.2959 33.7581L22.5223 35.9978H17.3108L16.578 33.7181C16.1094 32.322 15.1354 31.1435 13.8407 30.4062C12.546 29.6689 11.0208 29.4243 9.55465 29.7187L7.15248 30.1986L4.50601 25.7792L6.13461 23.9795C7.1361 22.8796 7.68977 21.4557 7.68977 19.98C7.68977 18.5043 7.1361 17.0804 6.13461 15.9805L4.50601 14.1808L7.11176 9.78139L9.51394 10.2613C10.9801 10.5557 12.5053 10.3111 13.8 9.57382C15.0947 8.83655 16.0687 7.658 16.5372 6.26187L17.3108 4.00218H22.5223L23.2959 6.28187C23.7644 7.67799 24.7385 8.85655 26.0332 9.59381C27.3278 10.3311 28.853 10.5757 30.3192 10.2813L32.7214 9.80139L35.3271 14.2408L33.6985 16.0405C32.7083 17.1379 32.1615 18.5536 32.1615 20.02C32.1615 21.4864 32.7083 22.9021 33.6985 23.9995ZM19.9166 12.0011C18.306 12.0011 16.7317 12.4702 15.3926 13.3491C14.0535 14.2281 13.0098 15.4773 12.3935 16.9389C11.7771 18.4006 11.6159 20.0089 11.9301 21.5605C12.2443 23.1121 13.0198 24.5374 14.1586 25.6561C15.2974 26.7748 16.7484 27.5366 18.328 27.8452C19.9075 28.1539 21.5448 27.9955 23.0328 27.39C24.5207 26.7846 25.7924 25.7594 26.6872 24.444C27.582 23.1285 28.0595 21.582 28.0595 20C28.0595 17.8786 27.2016 15.844 25.6745 14.3439C24.1474 12.8438 22.0762 12.0011 19.9166 12.0011ZM19.9166 23.9995C19.1113 23.9995 18.3241 23.7649 17.6546 23.3254C16.985 22.886 16.4632 22.2613 16.155 21.5305C15.8469 20.7997 15.7662 19.9956 15.9233 19.2197C16.0804 18.4439 16.4682 17.7313 17.0376 17.172C17.607 16.6126 18.3325 16.2317 19.1223 16.0774C19.9121 15.9231 20.7307 16.0023 21.4747 16.305C22.2186 16.6077 22.8545 17.1203 23.3019 17.778C23.7493 18.4357 23.9881 19.209 23.9881 20C23.9881 21.0607 23.5591 22.078 22.7955 22.828C22.032 23.5781 20.9964 23.9995 19.9166 23.9995Z" fill="black"/>
</svg>
